<svg width="40" height="41" viewBox="0 0 40 41" fill="none" xmlns="http://www.w3.org/2000/svg">
<rect y="0.59082" width="40" height="40" rx="8" fill="#167DB7"/>
<path fillRule="evenodd" clipRule="evenodd" d="M16.1216 27.4591C16.3552 27.4591 16.5305 27.3122 16.5597 27.1067L18.6625 9.6932V9.63447C18.6625 9.45828 18.5749 9.34082 18.3997 9.34082H18.3413H14.8949C14.6613 9.37019 14.6321 9.45828 14.6029 9.66384L12.5292 27.0773L12.5 27.1361C12.5 27.3416 12.6752 27.4591 12.8797 27.4591H16.1216ZM19.159 32.363C21.992 32.363 24.3578 31.4821 24.8251 27.694L27.074 9.6932C27.074 9.51701 26.9863 9.39955 26.7819 9.39955H26.7235L23.4232 9.34082C23.2187 9.37019 23.0435 9.48765 23.0143 9.6932L20.8238 27.7821C20.5901 29.5734 19.714 29.6908 18.4581 29.7495C18.2213 29.7628 18.0022 29.77 17.8009 29.7767C17.5554 29.7849 17.3364 29.7921 17.1438 29.8083C16.7641 29.8083 16.6181 29.8964 16.5597 30.3075L16.3844 31.717V31.8638C16.3844 32.1828 16.6122 32.2154 16.8148 32.2445L16.8225 32.2456C16.8661 32.2514 16.9077 32.2573 16.9489 32.2631C17.3213 32.3154 17.66 32.363 19.159 32.363Z" fill="white"/>
</svg>
